PathFileType	4	(X/Y/Z)	/Users/itak/Documents/Research/Walk-IL/dataset/trc/00161_00008.trc
DataRate	CameraRate	NumFrames	NumMarkers	Units	OrigDataRate	OrigDataStartFrame	OrigNumFrames
100.000000	100.000000	4	53	mm	100.000000	71	570
Frame#	Time	RPSI			LPSI			L3			STRN			T10			C7			CLAV			RBAK			LBAK			LSHO			LUPA			LAEL			LAOL			LWTS			LWPS			LFRA			LIFD			LHPS			LHTS			RSHO			RUPA			RAEL			RAOL			RWTS			RWPS			RFRA			RIFD			RHTS			RHPS			RBHD			LFHD			RFHD			LBHD			LHIP			RHIP			RASI			LASI			LKNE			LTHI			LANK			LTIP			LTOE			LMT1			LMT5			LHEE			RKNE			RANK			RTIP			RTOE			RMT1			RMT5			RHEE			RTHI			
		X1	Y1	Z1	X2	Y2	Z2	X3	Y3	Z3	X4	Y4	Z4	X5	Y5	Z5	X6	Y6	Z6	X7	Y7	Z7	X8	Y8	Z8	X9	Y9	Z9	X10	Y10	Z10	X11	Y11	Z11	X12	Y12	Z12	X13	Y13	Z13	X14	Y14	Z14	X15	Y15	Z15	X16	Y16	Z16	X17	Y17	Z17	X18	Y18	Z18	X19	Y19	Z19	X20	Y20	Z20	X21	Y21	Z21	X22	Y22	Z22	X23	Y23	Z23	X24	Y24	Z24	X25	Y25	Z25	X26	Y26	Z26	X27	Y27	Z27	X28	Y28	Z28	X29	Y29	Z29	X30	Y30	Z30	X31	Y31	Z31	X32	Y32	Z32	X33	Y33	Z33	X34	Y34	Z34	X35	Y35	Z35	X36	Y36	Z36	X37	Y37	Z37	X38	Y38	Z38	X39	Y39	Z39	X40	Y40	Z40	X41	Y41	Z41	X42	Y42	Z42	X43	Y43	Z43	X44	Y44	Z44	X45	Y45	Z45	X46	Y46	Z46	X47	Y47	Z47	X48	Y48	Z48	X49	Y49	Z49	X50	Y50	Z50	X51	Y51	Z51	X52	Y52	Z52	X53	Y53	Z53	

72	0.71	-1925.964233398438	1052.470581054688	-8.450392723083496	-1908.556274414062	1051.616577148438	-130.6011047363281	-1916.83349609375	1089.533935546875	-67.56387329101562	-1656.675903320312	1295.88330078125	-46.88849639892578	-1947.9072265625	1246.58203125	-75.73118591308594	-1882.771728515625	1516.256225585938	-83.64801788330078	-1683.115356445312	1409.98828125	-59.11870193481445	-1959.562377929688	1341.29443359375	20.52575492858887	-1878.5830078125	1489.16357421875	-185.6728668212891	-1793.418090820312	1474.417358398438	-256.0308227539062	-1812.638671875	1340.578002929688	-329.8114929199219	-1783.7724609375	1120.579956054688	-339.9710083007812	-1848.046630859375	1107.200561523438	-281.8353576660156	-1682.587280273438	892.3065185546875	-268.6116027832031	-1746.464599609375	869.2268676757812	-331.0792541503906	-1763.444091796875	1010.458312988281	-345.2380981445312	-1676.919189453125	707.9716796875	-238.1758270263672	-1727.107666015625	799.9934692382812	-318.5718688964844	-1665.628662109375	812.7744750976562	-281.406982421875	-1836.18212890625	1495.553955078125	104.0198822021484	-1859.111450195312	1427.8544921875	173.1720428466797	-1859.720825195312	1136.3017578125	226.0286560058594	-1870.100219726562	1131.126098632812	128.6209716796875	-1711.684814453125	914.2921142578125	188.2875671386719	-1781.561645507812	893.8629760742188	241.1002807617188	-1829.462158203125	1064.2548828125	240.3085327148438	-1694.94921875	727.6683349609375	159.01513671875	-1680.77294921875	821.9273071289062	192.3340301513672	-1750.189697265625	811.4883422851562	233.2853546142578	-1844.030151367188	1676.26025390625	-7.494383811950684	-1672.607177734375	1731.651000976562	-130.0055999755859	-1678.478881835938	1734.361450195312	-0.8677950501441956	-1843.392822265625	1680.379516601562	-145.4527587890625	-1791.546508789062	988.3743896484375	-236.8425140380859	-1794.927856445312	1007.278747558594	125.7643356323242	-1696.095458984375	1041.059326171875	86.47543334960938	-1674.109741210938	1025.906127929688	-170.8740234375	-1798.670776367188	496.1257629394531	-211.0298004150391	-1782.268310546875	638.1787109375	-233.6017456054688	-1894.997436523438	43.21549224853516	-233.5272064208984	-1846.885009765625	278.2812805175781	-235.4203948974609	-1674.926391601562	39.10665893554688	-225.9329376220703	-1721.214965820312	37.0998420715332	-173.5144500732422	-1790.141967773438	34.50782775878906	-281.1206359863281	-1939.729736328125	40.43812561035156	-159.0550689697266	-1793.310424804688	516.62158203125	124.5732650756836	-1896.462280273438	39.19907760620117	129.8329620361328	-1786.906494140625	397.1119995117188	111.8257064819336	-1670.991333007812	38.0145263671875	124.6923675537109	-1720.517700195312	36.92940139770508	71.468994140625	-1790.13330078125	33.72466278076172	178.89453125	-1938.508056640625	38.88148880004883	56.32700347900391	-1748.58251953125	783.0923461914062	150.8641357421875	
73	0.72	-1925.794921875	1052.595092773438	-8.217004776000977	-1908.521118164062	1051.742553710938	-130.371826171875	-1916.75634765625	1089.660766601562	-67.36019134521484	-1656.4140625	1295.937744140625	-46.67819595336914	-1947.793334960938	1246.697631835938	-75.49604034423828	-1882.579345703125	1516.352905273438	-83.43125915527344	-1682.9482421875	1410.021484375	-58.94148254394531	-1959.386840820312	1341.429321289062	20.73991203308105	-1878.359375	1489.231811523438	-185.3922882080078	-1793.220336914062	1474.525390625	-255.7691497802734	-1812.439086914062	1340.719360351562	-329.6014099121094	-1783.495239257812	1120.71630859375	-339.7733764648438	-1847.897827148438	1107.315063476562	-281.7284545898438	-1682.493286132812	892.398193359375	-268.4857177734375	-1746.196655273438	869.3603515625	-330.9645690917969	-1763.149169921875	1010.603942871094	-345.0553283691406	-1676.747680664062	708.0846557617188	-238.1006774902344	-1726.891845703125	800.1336059570312	-318.5048217773438	-1665.384887695312	812.897705078125	-281.2680053710938	-1835.931396484375	1495.580810546875	104.2601928710938	-1858.924682617188	1427.911010742188	173.4069213867188	-1859.591552734375	1136.346923828125	226.2440032958984	-1869.990600585938	1131.219360351562	128.8971405029297	-1711.632568359375	914.299072265625	188.4697265625	-1781.547607421875	893.884521484375	241.2765350341797	-1829.4111328125	1064.30029296875	240.4759979248047	-1695.021240234375	727.6676635742188	159.1203308105469	-1680.672119140625	821.9994506835938	192.5200347900391	-1750.161376953125	811.4765625	233.4205322265625	-1843.636962890625	1676.371948242188	-7.092772483825684	-1672.253295898438	1731.609497070312	-129.6981201171875	-1678.009887695312	1734.224609375	-0.5420504212379456	-1843.093627929688	1680.646484375	-145.0925445556641	-1791.535400390625	988.437744140625	-236.6340789794922	-1794.852905273438	1007.18017578125	125.8478851318359	-1696.05322265625	1041.174560546875	86.69822692871094	-1674.100708007812	1025.873291015625	-170.7431945800781	-1798.687744140625	496.1151733398438	-210.957275390625	-1782.31591796875	638.177001953125	-233.5247039794922	-1894.986083984375	43.23909759521484	-233.5062866210938	-1846.87353515625	278.282958984375	-235.3678283691406	-1674.92041015625	39.09990692138672	-225.9339447021484	-1721.212768554688	37.09152984619141	-173.5045928955078	-1790.130981445312	34.52484512329102	-281.1003723144531	-1939.72412109375	40.44319534301758	-159.0486145019531	-1793.398681640625	516.586181640625	124.6483612060547	-1896.466796875	39.19551849365234	129.8482818603516	-1786.998046875	397.1274108886719	111.9086151123047	-1670.992065429688	38.01466369628906	124.6958465576172	-1720.515747070312	36.93668365478516	71.47365570068359	-1790.131591796875	33.70705413818359	178.9046783447266	-1938.508666992188	38.89265823364258	56.33550262451172	-1748.7353515625	783.0272216796875	150.9327392578125	
74	0.73	-1925.63720703125	1052.723022460938	-7.994303226470947	-1908.490600585938	1051.844604492188	-130.1490783691406	-1916.677734375	1089.790161132812	-67.14425659179688	-1656.15283203125	1295.981079101562	-46.46891784667969	-1947.6875	1246.809326171875	-75.28120422363281	-1882.358520507812	1516.444702148438	-83.19371795654297	-1682.776000976562	1410.046142578125	-58.77268981933594	-1959.20361328125	1341.580200195312	20.95551872253418	-1878.146850585938	1489.283203125	-185.1165771484375	-1793.0166015625	1474.634521484375	-255.5008239746094	-1812.266479492188	1340.855346679688	-329.4017028808594	-1783.243041992188	1120.844360351562	-339.5783996582031	-1847.7646484375	1107.42041015625	-281.6201171875	-1682.264892578125	892.5399169921875	-268.3493957519531	-1745.927368164062	869.4904174804688	-330.8358459472656	-1762.862915039062	1010.740356445312	-344.8688659667969	-1676.53369140625	708.193603515625	-238.0038146972656	-1726.653442382812	800.265380859375	-318.4147338867188	-1665.1416015625	813.0113525390625	-281.1301879882812	-1835.67724609375	1495.602416992188	104.4895706176758	-1858.727661132812	1427.97998046875	173.6442413330078	-1859.472412109375	1136.3935546875	226.4658355712891	-1869.883666992188	1131.324584960938	129.1752166748047	-1711.588256835938	914.30908203125	188.6710357666016	-1781.54541015625	893.913818359375	241.4727325439453	-1829.36962890625	1064.349365234375	240.6569976806641	-1695.123657226562	727.6651000976562	159.2361907958984	-1680.567626953125	822.0679321289062	192.7312469482422	-1750.153564453125	811.4744873046875	233.5821228027344	-1843.249877929688	1676.473510742188	-6.69236421585083	-1671.910888671875	1731.572509765625	-129.3963775634766	-1677.554931640625	1734.091186523438	-0.2239001244306564	-1842.826049804688	1680.90869140625	-144.7383575439453	-1791.520629882812	988.4954223632812	-236.4295043945312	-1794.783447265625	1007.072448730469	125.9027328491211	-1696.020141601562	1041.279296875	86.90509796142578	-1674.096557617188	1025.839599609375	-170.6200866699219	-1798.69580078125	496.1045837402344	-210.8863983154297	-1782.344360351562	638.1707763671875	-233.4440765380859	-1894.9755859375	43.25991439819336	-233.4850463867188	-1846.856323242188	278.2836608886719	-235.3192749023438	-1674.916259765625	39.09328079223633	-225.9352264404297	-1721.210327148438	37.08147430419922	-173.492431640625	-1790.11962890625	34.53947448730469	-281.0798950195312	-1939.718383789062	40.4471549987793	-159.0419769287109	-1793.470703125	516.5565185546875	124.7255172729492	-1896.47314453125	39.1896858215332	129.8688812255859	-1787.077758789062	397.1416625976562	111.9925231933594	-1670.994262695312	38.01642608642578	124.6990737915039	-1720.514526367188	36.94580841064453	71.47917175292969	-1790.127319335938	33.68991851806641	178.9179077148438	-1938.511474609375	38.90604782104492	56.34659194946289	-1748.921875	782.9541015625	151.0017242431641	
75	0.74	-1925.495971679688	1052.851806640625	-7.779062271118164	-1908.4609375	1051.920776367188	-129.9376373291016	-1916.595947265625	1089.91748046875	-66.92329406738281	-1655.900268554688	1296.009399414062	-46.26351547241211	-1947.587768554688	1246.917236328125	-75.08515167236328	-1882.115844726562	1516.533813476562	-82.94356536865234	-1682.596313476562	1410.060180664062	-58.61020660400391	-1959.012084960938	1341.7353515625	21.1730899810791	-1877.946533203125	1489.324829101562	-184.8480987548828	-1792.808227539062	1474.741455078125	-255.2297973632812	-1812.119995117188	1340.981323242188	-329.2142639160156	-1783.024536132812	1120.961669921875	-339.3898315429688	-1847.640991210938	1107.516845703125	-281.5036315917969	-1681.904174804688	892.7282104492188	-268.203369140625	-1745.661376953125	869.6135864257812	-330.6918640136719	-1762.599853515625	1010.863037109375	-344.6847839355469	-1676.268432617188	708.2964477539062	-237.8834075927734	-1726.389526367188	800.3853149414062	-318.2959289550781	-1664.89990234375	813.114990234375	-280.9974670410156	-1835.423095703125	1495.619506835938	104.7064208984375	-1858.513549804688	1428.056274414062	173.8846588134766	-1859.362182617188	1136.43798828125	226.6919097900391	-1869.77783203125	1131.433349609375	129.4470062255859	-1711.55126953125	914.3179931640625	188.8874664306641	-1781.5498046875	893.94580078125	241.6876220703125	-1829.331909179688	1064.3974609375	240.851806640625	-1695.25634765625	727.6576538085938	159.3628540039062	-1680.462524414062	822.1286010742188	192.9663543701172	-1750.165161132812	811.4789428710938	233.7720947265625	-1842.871826171875	1676.561401367188	-6.296338558197021	-1671.580200195312	1731.5400390625	-129.1019439697266	-1677.114379882812	1733.960693359375	0.08332622796297073	-1842.584106445312	1681.157470703125	-144.3843994140625	-1791.50048828125	988.5433349609375	-236.2296600341797	-1794.718017578125	1006.958374023438	125.9268493652344	-1695.989379882812	1041.362060546875	87.08966827392578	-1674.09326171875	1025.806762695312	-170.50390625	-1798.698608398438	496.0949096679688	-210.8164978027344	-1782.353393554688	638.1595458984375	-233.3571472167969	-1894.96728515625	43.27600479125977	-233.4652557373047	-1846.838623046875	278.2840576171875	-235.2741241455078	-1674.91455078125	39.08778381347656	-225.9362640380859	-1721.20751953125	37.07102203369141	-173.4788208007812	-1790.108642578125	34.55128479003906	-281.0608215332031	-1939.713500976562	40.44948196411133	-159.0354766845703	-1793.523559570312	516.5328979492188	124.8037567138672	-1896.480834960938	39.18137359619141	129.8930053710938	-1787.14208984375	397.1538391113281	112.0768966674805	-1670.997680664062	38.0190315246582	124.7016220092773	-1720.515258789062	36.95590209960938	71.48499298095703	-1790.123046875	33.67313766479492	178.933349609375	-1938.517211914062	38.92023086547852	56.35966110229492	-1749.143920898438	782.8756103515625	151.0730590820312	
